<svg width="23" height="23" viewBox="0 0 23 23" fill="none" xmlns="http://www.w3.org/2000/svg">
<g opacity="0.7" clip-path="url(#clip0_5_676)">
<path d="M14.7826 15.827C14.7256 15.052 14.7095 14.2744 14.7347 13.4977L14.7337 13.5318C15.4279 12.8121 15.8609 11.8806 15.9635 10.886L15.9653 10.8666C16.278 10.8408 16.7716 10.5363 16.9155 9.32969C16.9589 9.12187 16.9426 8.906 16.8683 8.70711C16.794 8.50823 16.6648 8.33449 16.4958 8.20605L16.493 8.20421C17.0022 6.67282 18.0594 1.93473 14.5363 1.44579C14.1738 0.809252 13.2457 0.486368 12.039 0.486368C7.21147 0.574931 6.62936 4.13126 7.68473 8.20421C7.51432 8.33382 7.38434 8.50929 7.31001 8.71007C7.23568 8.91085 7.22006 9.12865 7.26498 9.33799L7.26405 9.33061C7.41166 10.5354 7.90152 10.8417 8.21425 10.8675C8.32395 11.8732 8.77069 12.8122 9.4818 13.5318C9.50519 14.3222 9.48733 15.1132 9.4283 15.9017L9.43291 15.827C8.47533 18.3953 2.02873 17.6739 1.73352 22.6269H22.4516C22.1545 17.6739 15.7374 18.3953 14.7817 15.827H14.7826Z" fill="white"/>
</g>
<defs>
<clipPath id="clip0_5_676">
<rect width="22.1406" height="22.1406" fill="white" transform="translate(0.626472 0.486362)"/>
</clipPath>
</defs>
</svg>
